<svg width="178" height="59" viewBox="0 0 178 59" fill="none" xmlns="http://www.w3.org/2000/svg">
<path d="M20.0837 16.8603C20.0837 19.637 19.3524 22.0695 17.8898 24.1576C16.2498 26.5344 14.1112 27.7229 11.4741 27.7229H2.86436V8.16361H1.2355L0.204994 6.26431H2.86436V0.333206H12.6375C13.6791 0.377634 14.5656 0.777483 15.2969 1.53275C16.0282 2.28803 16.3939 3.18768 16.3939 4.23173C16.3939 5.23137 16.006 6.15324 15.2304 6.99736C15.1418 7.08622 15.0753 7.15286 15.0309 7.19729C16.4936 7.93031 17.7236 9.31873 18.7208 11.3624C19.6294 13.2505 20.0837 15.0832 20.0837 16.8603ZM14.4326 4.23173C14.4326 3.0544 13.8342 2.39909 12.6375 2.26581V2.29914H9.11389V6.26431H10.776C10.6209 6.26431 11.1859 6.24209 12.4713 6.19766C13.7788 6.15324 14.4326 5.49793 14.4326 4.23173ZM18.1225 16.8603C18.1225 14.8833 17.6127 13.0617 16.5933 11.3957C15.4631 9.52971 13.9894 8.45235 12.1722 8.16361H9.11389V25.6903C9.46847 25.757 9.84518 25.7792 10.2441 25.757C10.51 25.757 10.92 25.757 11.4741 25.757C13.5129 25.6903 15.175 24.6796 16.4603 22.7248C17.5684 20.9921 18.1225 19.0372 18.1225 16.8603ZM34.1119 27.7229H22.8096V0.366527H29.0591V25.8236H33.1146L34.1119 27.7229ZM50.8326 20.7588C50.8326 22.6915 50.1567 24.3353 48.8048 25.6903C47.453 27.0454 45.8131 27.7229 43.885 27.7229C41.957 27.7229 40.3171 27.0454 38.9652 25.6903C37.6134 24.3353 36.9374 22.6915 36.9374 20.7588V0.333206H43.2202V25.7236C43.3531 25.7459 43.5748 25.757 43.885 25.757C45.2812 25.757 46.4557 25.2794 47.4087 24.3242C48.3838 23.3468 48.8714 22.1583 48.8714 20.7588L48.9378 0.333206H50.8326V20.7588ZM65.9577 27.7229H54.6554V8.13027H53.5252L52.4947 6.23098H54.6554V0.333206H64.9272L65.9577 2.19917H60.9049V6.23098H64.9605L65.9577 8.13027H60.9049V25.8236H64.9272L65.9577 27.7229ZM89.9588 8.16361H84.906V27.7229H78.6562V8.16361H77.3598L76.3627 6.26431H78.6562V0.333206H88.961L89.9588 2.23249H84.906V6.26431H88.961L89.9588 8.16361ZM107.577 20.7588C107.577 22.6915 106.901 24.3353 105.549 25.6903C104.197 27.0454 102.557 27.7229 100.629 27.7229C98.7014 27.7229 97.0611 27.0454 95.7094 25.6903C94.3577 24.3353 93.6819 22.6915 93.6819 20.7588V0.333206H99.9644V25.7236C100.097 25.7459 100.319 25.757 100.629 25.757C102.025 25.757 103.2 25.2794 104.153 24.3242C105.128 23.3468 105.616 22.1583 105.616 20.7588L105.682 0.333206H107.577V20.7588ZM124.231 27.7229H122.336V10.3961L117.516 3.532V27.7229H111.266V0.333206H118.115L122.336 6.39759V0.333206H124.231V27.7229ZM144.675 8.16361H142.248V28.6892H140.353V26.5899C139.179 27.3453 137.938 27.7229 136.63 27.7229C133.638 27.7229 131.256 26.1235 129.483 22.9247C128.02 20.259 127.289 17.3046 127.289 14.0613C127.289 12.0399 127.588 10.074 128.187 8.16361H127.222L126.159 6.26431H128.951C129.749 4.57605 130.768 3.22101 132.009 2.19917C133.428 0.999622 134.968 0.399848 136.63 0.399848C138.115 0.399848 139.512 0.877449 140.819 1.83264V4.59827C139.556 3.24322 138.159 2.5657 136.63 2.5657C135.877 2.5657 134.924 2.91001 133.772 3.59864V6.26431H143.645L144.675 8.16361ZM140.353 24.0243V8.16361H133.772V24.5241C134.924 25.2794 135.877 25.657 136.63 25.657C137.938 25.657 139.179 25.1127 140.353 24.0243ZM161.496 20.7588C161.496 22.6915 160.819 24.3353 159.467 25.6903C158.116 27.0454 156.475 27.7229 154.548 27.7229C152.62 27.7229 150.979 27.0454 149.628 25.6903C148.276 24.3353 147.6 22.6915 147.6 20.7588V0.333206H153.883V25.7236C154.016 25.7459 154.237 25.757 154.548 25.757C155.944 25.757 157.119 25.2794 158.071 24.3242C159.046 23.3468 159.534 22.1583 159.534 20.7588L159.601 0.333206H161.496V20.7588ZM177.917 22.3249C177.718 24.1465 176.255 25.9458 173.529 27.7229H165.617V27.6896C169.474 25.4904 171.424 23.0025 171.468 20.2257C171.49 18.8484 170.847 17.2601 169.54 15.4608C168.432 14.0392 167.335 12.6064 166.249 11.1624C165.229 9.62972 164.709 7.9859 164.687 6.23098C164.664 4.47609 165.872 2.51016 168.31 0.333206H176.188V0.366527C174.748 0.944091 173.607 1.74379 172.764 2.76562C171.811 3.94296 171.401 5.25357 171.535 6.69748C171.645 7.78594 172.033 8.9744 172.698 10.2628C173.097 11.0181 173.795 12.1288 174.792 13.5949C175.79 15.061 176.477 16.1606 176.853 16.8936C177.584 18.382 177.95 19.8814 177.95 21.392C177.95 21.7029 177.939 22.014 177.917 22.3249ZM16.531 46.5381C16.531 48.9205 15.9216 50.9363 14.7027 52.5858C13.4838 54.2351 11.9805 55.0904 10.1928 55.1514L9.2787 55.182V59H3.5195V37.8941C4.27114 37.8941 5.38845 37.8941 6.87141 37.8941C8.33409 37.9144 9.44124 37.9246 10.1928 37.9246C12.1634 37.9246 13.7581 38.902 14.9769 40.8569C16.013 42.547 16.531 44.4407 16.531 46.5381ZM14.7332 46.5381C14.7332 44.9498 14.3777 43.4938 13.6666 42.1702C12.7931 40.5412 11.6352 39.7267 10.1928 39.7267H9.2787V53.3799L10.1928 53.3494C11.4524 53.3086 12.5189 52.6367 13.3924 51.3334C14.2862 50.0302 14.7332 48.4318 14.7332 46.5381ZM34.7532 51.0891L34.6922 59H32.9553V50.8753C32.9553 49.287 32.3865 47.9329 31.2489 46.8129C30.1113 45.6726 28.7401 45.0719 27.1352 45.0108L26.1296 43.2088H26.8914C26.993 43.2088 27.1454 43.2088 27.3485 43.2088C27.5516 43.2291 27.704 43.2393 27.8056 43.2393C28.2931 43.2393 28.7096 43.0662 29.0549 42.7201C29.4206 42.3535 29.6034 41.9259 29.6034 41.4372C29.6034 40.9688 29.4409 40.5616 29.1158 40.2154C28.7908 39.8489 28.3947 39.6656 27.9275 39.6656H24.7279V59H18.9992V37.8635H27.9275C28.8822 37.9246 29.6948 38.3013 30.3652 38.9937C31.0559 39.6656 31.4013 40.4801 31.4013 41.4372C31.4013 42.4146 31.0458 43.2698 30.3347 44.0028C31.6755 44.6749 32.7521 45.6523 33.5648 46.9351C34.3773 48.2179 34.7735 49.6026 34.7532 51.0891ZM54.1942 48.4623C54.1942 51.1298 53.4527 53.5021 51.9698 55.5791C50.3243 57.8597 48.2116 59 45.6316 59C43.0517 59 40.9389 57.8597 39.2935 55.5791C37.8105 53.5225 37.069 51.1502 37.069 48.4623C37.069 45.7948 37.8105 43.4225 39.2935 41.3456C40.9389 39.0649 43.0517 37.9246 45.6316 37.9246C48.1913 37.9246 50.3039 39.0751 51.9698 41.3761C53.4527 43.4327 54.1942 45.7948 54.1942 48.4623ZM52.4268 48.4623C52.4268 46.2835 51.8479 44.3389 50.6899 42.6284C49.3898 40.6939 47.7037 39.7267 45.6316 39.7267C44.7378 39.7267 43.8642 39.9507 43.011 40.3987V56.5259C43.8642 56.9739 44.7378 57.1979 45.6316 57.1979C47.7037 57.1979 49.3898 56.2307 50.6899 54.2962C51.8479 52.5858 52.4268 50.6411 52.4268 48.4623ZM71.8985 48.4623C71.8985 51.1298 71.1567 53.5021 69.6739 55.5791C68.0284 57.8597 65.9157 59 63.3357 59H57.2109V37.8941L63.3357 37.9246C65.9157 37.945 68.0284 39.0955 69.6739 41.3761C71.1567 43.4327 71.8985 45.7948 71.8985 48.4623ZM70.1005 48.4623C70.1005 46.3038 69.5216 44.3694 68.3636 42.6589C67.0635 40.7041 65.3876 39.7267 63.3357 39.7267H62.9397V57.1979H63.3357C65.4078 57.1979 67.0939 56.2307 68.3941 54.2962C69.5317 52.5858 70.1005 50.6411 70.1005 48.4623ZM87.3172 52.6163C87.3172 54.4082 86.6973 55.9252 85.4584 57.1674C84.2394 58.3891 82.736 59 80.9482 59C79.1809 59 77.6782 58.3789 76.4386 57.1368C75.1997 55.8947 74.5799 54.3878 74.5799 52.6163L74.6104 37.8941H80.339V57.1674C80.4815 57.1877 80.6844 57.1979 80.9482 57.1979C82.2282 57.1979 83.3154 56.7601 84.2089 55.8845C85.1032 54.9886 85.5499 53.8991 85.5499 52.6163L85.5804 37.8941H87.3172V52.6163ZM101.243 58.3586C100.369 58.7659 99.4247 58.9694 98.4092 58.9694C95.8087 58.9491 93.6961 57.8088 92.0707 55.5485C90.5878 53.4919 89.846 51.1197 89.846 48.4317C89.846 45.7642 90.5878 43.392 92.0707 41.315C93.7159 39.0344 95.8293 37.8941 98.4092 37.8941C99.3843 37.8941 100.329 38.0977 101.243 38.505V40.4903C100.369 39.9608 99.4247 39.6962 98.4092 39.6962C97.5149 39.6962 96.6412 39.9202 95.7881 40.3682V56.4954C96.6412 56.9434 97.5149 57.1674 98.4092 57.1674C99.4247 57.1674 100.369 56.9027 101.243 56.3732V58.3586ZM116.082 39.6351H112.639V59H106.911V39.6351H104.412L103.467 37.8941H115.168L116.082 39.6351ZM127.905 59H119.069L118.124 57.259H120.135V39.6656H119.069L118.124 37.9246H126.961L127.905 39.6656H125.864V57.259H126.961L127.905 59ZM147.407 48.4623C147.407 51.1298 146.666 53.5021 145.183 55.5791C143.538 57.8597 141.425 59 138.845 59C136.265 59 134.152 57.8597 132.507 55.5791C131.024 53.5225 130.283 51.1502 130.283 48.4623C130.283 45.7948 131.024 43.4225 132.507 41.3456C134.152 39.0649 136.265 37.9246 138.845 37.9246C141.404 37.9246 143.518 39.0751 145.183 41.3761C146.666 43.4327 147.407 45.7948 147.407 48.4623ZM145.64 48.4623C145.64 46.2835 145.062 44.3389 143.903 42.6284C142.604 40.6939 140.917 39.7267 138.845 39.7267C137.951 39.7267 137.078 39.9507 136.225 40.3987V56.5259C137.078 56.9739 137.951 57.1979 138.845 57.1979C140.917 57.1979 142.604 56.2307 143.903 54.2962C145.062 52.5858 145.64 50.6411 145.64 48.4623ZM162.156 59H160.419V47.0878L156.001 40.7957V59H150.272V37.8941H156.549L160.419 43.4225V37.8941H162.156V59ZM176.874 54.846C176.711 56.251 175.381 57.6357 172.882 59H165.63V58.9694C169.144 57.2997 170.932 55.3754 170.993 53.1966C171.013 52.1581 170.403 50.916 169.165 49.4703C168.169 48.391 167.174 47.3017 166.178 46.202C165.264 45.021 164.787 43.7585 164.746 42.4146C164.726 41.0706 165.843 39.5638 168.098 37.8941H175.32C174.061 38.3013 173.044 38.8816 172.273 39.6351C171.318 40.5514 170.912 41.6 171.054 42.7811C171.155 43.8603 171.815 45.2145 173.034 46.8434C174.903 49.3074 175.858 50.58 175.899 50.6615C176.569 51.8018 176.904 52.9523 176.904 54.1129C176.904 54.3573 176.894 54.6017 176.874 54.846Z" fill="white"/>
</svg>
