<svg viewBox="0 0 1756 1386" fill="none" xmlns="http://www.w3.org/2000/svg">
<path d="M12.3303 115.761C45.5431 103.246 26.169 87.6027 12.3303 81.3454V37.544L79.7935 6.25734H360.026C397.391 16.2691 448.248 12.5147 469.006 9.386L510.522 34.4153H567.606L609.122 6.25734H650.638L661.017 12.5147H702.533L712.912 0H759.617L811.512 28.158L842.649 12.5147H884.165L915.302 0L982.765 21.9007L1024.28 3.12867H1278.57L1361.6 21.9007L1408.3 9.386H1579.56L1610.69 21.9007L1615.88 12.5147H1636.64L1688.54 34.4153V62.5734L1735.24 90.7314V362.926L1756 369.183V503.716L1735.24 515.9L1719.67 772.994L1740.43 822.84V988.659L1719.67 1007.43V1070L1735.24 1076.26V1386H1512.09C1458.12 1343.45 1403.11 1334.9 1382.36 1335.94C1315.93 1378.49 1230.13 1374.53 1195.53 1367.23C1100.05 1392.26 1034.66 1375.57 1013.9 1364.1L863.407 1360.97L759.617 1379.74H500.143C491.493 1380.79 472.119 1379.12 463.816 1364.1C455.513 1349.08 425.76 1351.58 411.921 1354.71C396.353 1357.84 357.95 1365.98 328.889 1373.49C299.828 1380.99 278.724 1378.7 271.805 1376.61C259.696 1371.4 232.365 1361.6 219.91 1364.1C207.455 1366.6 159.366 1373.49 136.878 1376.61C53.8461 1381.62 22.7091 1341.16 17.5196 1320.3L12.3303 876.027L43.4671 860.384L12.3303 807.196V760.266L84.983 747.752L27.8988 672.664V631.991C-13.6172 611.967 0.221492 531.874 12.3303 494.33V115.761Z" fill="url(#paint0_radial_6_39)"/>
<defs>
<radialGradient id="paint0_radial_6_39" cx="0" cy="0" r="1" gradientUnits="userSpaceOnUse" gradientTransform="translate(878 693) rotate(90) scale(693 878)">
<stop stop-color="#BBCFC7"/>
<stop offset="1" stop-color="#687674"/>
</radialGradient>
</defs>
</svg>
